<svg id="Camada_3" data-name="Camada 3" xmlns="http://www.w3.org/2000/svg" viewBox="0 0 210 55.35"><defs><style>.cls-1{fill:#fff;}</style></defs><path class="cls-1" d="M81.26,36.59a9.53,9.53,0,0,1-2.9-1.18l1.48-3.18a9.38,9.38,0,0,0,2.47,1.07,10.61,10.61,0,0,0,2.85.41c1.87,0,2.81-.47,2.81-1.4a1,1,0,0,0-.77-.93,11.59,11.59,0,0,0-2.36-.49,22.57,22.57,0,0,1-3.1-.65,4.77,4.77,0,0,1-2.11-1.31,3.72,3.72,0,0,1-.9-2.67,4.2,4.2,0,0,1,.84-2.58A5.48,5.48,0,0,1,82,21.93a10.66,10.66,0,0,1,3.8-.62,15.36,15.36,0,0,1,3.23.35,9,9,0,0,1,2.66,1L90.22,25.8a8.84,8.84,0,0,0-4.41-1.14,4.52,4.52,0,0,0-2.13.4,1.17,1.17,0,0,0-.71,1,1,1,0,0,0,.77,1,13.35,13.35,0,0,0,2.44.54,25.57,25.57,0,0,1,3.07.67,4.69,4.69,0,0,1,2.08,1.29,3.68,3.68,0,0,1,.88,2.62,4,4,0,0,1-.85,2.53,5.47,5.47,0,0,1-2.49,1.72,11.05,11.05,0,0,1-3.88.61A14.56,14.56,0,0,1,81.26,36.59Z" transform="translate(0 0)"/><path class="cls-1" d="M97.94,36.05a7.48,7.48,0,0,1-3-2.8,7.71,7.71,0,0,1,3-10.93,9.43,9.43,0,0,1,4.39-1,8.59,8.59,0,0,1,4.23,1,6,6,0,0,1,2.63,2.89l-3.44,1.84A3.78,3.78,0,0,0,102.3,25a3.9,3.9,0,0,0-2.87,1.14,4.18,4.18,0,0,0-1.13,3.1,4.19,4.19,0,0,0,1.13,3.1,3.93,3.93,0,0,0,2.87,1.13,3.74,3.74,0,0,0,3.45-2.1l3.44,1.88A6.12,6.12,0,0,1,106.56,36a8.49,8.49,0,0,1-4.23,1A9.31,9.31,0,0,1,97.94,36.05Z" transform="translate(0 0)"/><path class="cls-1" d="M123.38,23a6.48,6.48,0,0,1,1.9,5.11v8.73h-4.15V34.93c-.83,1.42-2.39,2.13-4.66,2.13a7.36,7.36,0,0,1-3.06-.59,4.64,4.64,0,0,1-2-1.65,4.33,4.33,0,0,1-.68-2.39,4,4,0,0,1,1.61-3.36,8.21,8.21,0,0,1,5-1.22h3.53a2.81,2.81,0,0,0-.89-2.23,3.87,3.87,0,0,0-2.64-.78,7.53,7.53,0,0,0-2.4.38,6.36,6.36,0,0,0-2,1l-1.59-3.1a9.65,9.65,0,0,1,3-1.37,13.53,13.53,0,0,1,3.6-.48A8,8,0,0,1,123.38,23Zm-3.79,10.55A2.91,2.91,0,0,0,120.85,32V30.44h-3c-1.82,0-2.73.59-2.73,1.79a1.61,1.61,0,0,0,.67,1.35,3,3,0,0,0,1.84.5A3.84,3.84,0,0,0,119.59,33.55Z" transform="translate(0 0)"/><path class="cls-1" d="M129.29,15.74h4.44v21.1h-4.44Z" transform="translate(0 0)"/><path class="cls-1" d="M149.48,23a6.49,6.49,0,0,1,1.91,5.11v8.73h-4.15V34.93c-.84,1.42-2.39,2.13-4.67,2.13a7.42,7.42,0,0,1-3.06-.59,4.55,4.55,0,0,1-2-1.65,4.25,4.25,0,0,1-.68-2.39,4,4,0,0,1,1.6-3.36,8.23,8.23,0,0,1,5-1.22H147a2.81,2.81,0,0,0-.88-2.23,3.9,3.9,0,0,0-2.65-.78,7.62,7.62,0,0,0-2.4.38,6.3,6.3,0,0,0-2,1l-1.6-3.1a9.87,9.87,0,0,1,3-1.37,13.58,13.58,0,0,1,3.6-.48A8,8,0,0,1,149.48,23ZM145.7,33.55A2.89,2.89,0,0,0,147,32V30.44h-3c-1.82,0-2.73.59-2.73,1.79a1.58,1.58,0,0,0,.67,1.35,3,3,0,0,0,1.83.5A3.88,3.88,0,0,0,145.7,33.55Z" transform="translate(0 0)"/><path class="cls-1" d="M156.82,36.59a9.43,9.43,0,0,1-2.9-1.18l1.48-3.18a9.24,9.24,0,0,0,2.47,1.07,10.54,10.54,0,0,0,2.84.41c1.88,0,2.82-.47,2.82-1.4a1,1,0,0,0-.77-.93,11.75,11.75,0,0,0-2.36-.49,22.57,22.57,0,0,1-3.1-.65,4.85,4.85,0,0,1-2.12-1.31,3.76,3.76,0,0,1-.89-2.67,4.2,4.2,0,0,1,.84-2.58,5.48,5.48,0,0,1,2.44-1.75,10.62,10.62,0,0,1,3.8-.62,15.43,15.43,0,0,1,3.23.35,9,9,0,0,1,2.65,1l-1.47,3.15a8.84,8.84,0,0,0-4.41-1.14,4.52,4.52,0,0,0-2.13.4,1.18,1.18,0,0,0-.72,1,1,1,0,0,0,.77,1,13.51,13.51,0,0,0,2.45.54,26,26,0,0,1,3.07.67,4.6,4.6,0,0,1,2.07,1.29,3.68,3.68,0,0,1,.89,2.62,4,4,0,0,1-.86,2.53,5.44,5.44,0,0,1-2.48,1.72,11.11,11.11,0,0,1-3.89.61A14.48,14.48,0,0,1,156.82,36.59Z" transform="translate(0 0)"/><path class="cls-1" d="M173.44,36.05a7.44,7.44,0,0,1-3-2.8,8.19,8.19,0,0,1,0-8.13,7.51,7.51,0,0,1,3-2.8,9.79,9.79,0,0,1,8.66,0,7.52,7.52,0,0,1,3,2.8,8.12,8.12,0,0,1,0,8.13,7.45,7.45,0,0,1-3,2.8,9.79,9.79,0,0,1-8.66,0Zm7.14-3.78a4.28,4.28,0,0,0,1.09-3.08,4.3,4.3,0,0,0-1.09-3.09,3.69,3.69,0,0,0-2.8-1.15A3.74,3.74,0,0,0,175,26.1a4.27,4.27,0,0,0-1.11,3.09A4.25,4.25,0,0,0,175,32.27a3.74,3.74,0,0,0,2.82,1.15A3.69,3.69,0,0,0,180.58,32.27Z" transform="translate(0 0)"/><path class="cls-1" d="M194,21.88h3.92v3.41H194.1V36.84h-4.44V25.29H187.3V21.88h2.36V21.2A5.61,5.61,0,0,1,191.21,17a6,6,0,0,1,4.37-1.53,8.29,8.29,0,0,1,1.89.21,4.64,4.64,0,0,1,1.49.61l-1.16,3.22A3.06,3.06,0,0,0,196,19c-1.34,0-2,.74-2,2.21Z" transform="translate(0 0)"/><path class="cls-1" d="M72,30.3l-7,0a4.2,4.2,0,0,0,1.78,2.33,4.89,4.89,0,0,0,2.92.83,5.89,5.89,0,0,0,2.14-.35,5.1,5.1,0,0,0,1.73-1.14L76,34.52A8,8,0,0,1,69.6,37,10.07,10.07,0,0,1,65,36a7.51,7.51,0,0,1-3.1-2.82,8.34,8.34,0,0,1,0-8.19,7.6,7.6,0,0,1,2.95-2.84l.09,0a10.16,10.16,0,0,1,4.12-1,7.7,7.7,0,0,1,4.1,1,5.83,5.83,0,0,1,2.47,3.15l0,.07A3.82,3.82,0,0,1,72,30.3Zm3.86-1.22-6.81-4.56a4.7,4.7,0,0,0-.78.07,4.35,4.35,0,0,0-2.39,1.21,4,4,0,0,0-.95,1.68h5.89a1.14,1.14,0,0,0,.56-.15,1.23,1.23,0,0,0,.45-.54,1.58,1.58,0,0,0-.26-1.41A3,3,0,0,0,69.05,24.52Z" transform="translate(0 0)"/><polygon class="cls-1" points="205.1 18.15 200.96 18.15 205.1 21.15 205.1 18.15"/><path class="cls-1" d="M208.8,33a2.84,2.84,0,0,1-1.79.57A1.88,1.88,0,0,1,205.6,33a2.09,2.09,0,0,1-.49-1.49V25.29h3.81V21.88h-3.81l-4.44-3.24h0v3.24h-2.36v3.41h2.36v6.29a5.34,5.34,0,0,0,1.49,4.09,6,6,0,0,0,4.23,1.39,8.12,8.12,0,0,0,2-.24A4.58,4.58,0,0,0,210,36.1Z" transform="translate(0 0)"/><path class="cls-1" d="M46.05,0H9.3A9.3,9.3,0,0,0,0,9.3V46.05a9.3,9.3,0,0,0,9.3,9.3H46.05a9.3,9.3,0,0,0,9.3-9.3V9.3A9.3,9.3,0,0,0,46.05,0ZM18,41a14.89,14.89,0,0,1-6.85-1.51,11.1,11.1,0,0,1-4.59-4.19,11.49,11.49,0,0,1-1.61-6.08,11.68,11.68,0,0,1,1.59-6.05,11.09,11.09,0,0,1,4.38-4.21l.13-.07a14.81,14.81,0,0,1,6.1-1.44,11.32,11.32,0,0,1,6.07,1.44,8.73,8.73,0,0,1,3.68,4.67l0,.1A5.67,5.67,0,0,1,21.55,31l-10.37,0a6.27,6.27,0,0,0,2.64,3.46,7.34,7.34,0,0,0,4.34,1.23,8.62,8.62,0,0,0,3.16-.53,7.51,7.51,0,0,0,2.57-1.68l3.53,3.83Q24.2,41,18,41Zm31.15-3.49A8.13,8.13,0,0,1,45.43,40a16.59,16.59,0,0,1-5.81.92,22.61,22.61,0,0,1-5.57-.7,14.49,14.49,0,0,1-4.33-1.77l2.21-4.76a13.89,13.89,0,0,0,3.7,1.6,15.48,15.48,0,0,0,4.25.61c2.8,0,4.21-.69,4.21-2.08a1.48,1.48,0,0,0-1.15-1.4,16.64,16.64,0,0,0-3.53-.73,34.61,34.61,0,0,1-4.63-1,7.16,7.16,0,0,1-3.17-2,5.57,5.57,0,0,1-1.34-4A6.29,6.29,0,0,1,31.52,21a8.17,8.17,0,0,1,3.66-2.62,15.69,15.69,0,0,1,5.68-.93,22.52,22.52,0,0,1,4.82.53,13.25,13.25,0,0,1,4,1.47l-2.22,4.71a13.2,13.2,0,0,0-6.58-1.7,6.66,6.66,0,0,0-3.19.6,1.76,1.76,0,0,0-1.07,1.53A1.53,1.53,0,0,0,37.75,26a20.52,20.52,0,0,0,3.66.8,41.83,41.83,0,0,1,4.59,1,6.92,6.92,0,0,1,3.1,1.94,5.48,5.48,0,0,1,1.32,3.91A6,6,0,0,1,49.14,37.46Z" transform="translate(0 0)"/><path class="cls-1" d="M20.63,26.58a1.78,1.78,0,0,0,.66-.79,2.31,2.31,0,0,0-.39-2.09C20,22.39,18,22.41,17.18,22.41a7.43,7.43,0,0,0-1.17.12,6.31,6.31,0,0,0-3.54,1.79,5.88,5.88,0,0,0-1.41,2.48h8.73A1.64,1.64,0,0,0,20.63,26.58Z" transform="translate(0 0)"/></svg>